<?xml version="1.0" encoding="UTF-8"?>
<svg id="Layer_1" data-name="Layer 1" xmlns="http://www.w3.org/2000/svg" viewBox="0 0 241.76 100.28">
  <defs>
    <style>
      .cls-1 {
        fill: #fff;
      }

      .cls-2 {
        fill-rule: evenodd;
        stroke: #00a160;
      }

      .cls-2, .cls-3 {
        fill: #00a160;
      }
    </style>
  </defs>
  <path class="cls-2" d="M152.34,5.58s.56,.9,3.73,.75c0,0,1.05,.3,4.29,.12,0,0,11.89-.34,15.2,.56,0,0,.04-5.64,.11-6.21,0,0,1.2-.9,3.27,.41,0,0,1.05,.19,1.09,2.86,0,0,.86,3.46,.83,4.14,0,0-.26,2.48,.19,2.75,0,0,.68,.3,.6,.79,0,0,.53,.34,1.84,.68,0,0,1.81-.26,2.33,.15,0,0,1.95,.71,2.29,.83,.19,.08,2.03,.04,2.03,.04,0,0,.19,1.69,1.69,1.69,.19,0,2.18,.19,3.5-1.24,0,0,0-.9,1.24-.37,0,0,2.26,.07,2.45-.15,0,0,.68-.53,1.39,.26,0,0,1.32,.49,1.88,.83,0,0,1.05,.3,.9,.83,0,0-.71,1.54,.41,1.36,.15,.04,1.39-.15,1.73,.3,0,0,1.24,3.12,1.77,3.23,0,0,.9,.15,.68-1.58,0,0,1.39-1.58,3.31,.34,0,0,1.39,1.62,2.56,1.43,0,0,1.05,.6,1.24,1.28,0,0,2.07,1.16,3.31,1.2,0,0,1.7-.23,1.84-.98,0,0,1.58-1.81,2.45-1.88,0,0,1.02-.26,1.13,.11,0,0,.41,.83,.37,1.02,0,.15,.34,.75,1.09,.9,0,0,2.78,.07,3.42-.23,0,0,1.73-.49,2.22-.49,0,0,1.17-.04,1.73,.45,0,0,.71,.83,1.43,1.13,0,0,1.8,.34,2.37,.11,0,0,1.32-.37,2.45,.23l1.09,.41s-.98,.15-2,.56c0,0-4.59,1.54-5.49,2.37,0,0-6.39,3.2-8.73,5.27,0,0-3.73,3.05-4.33,4.59,0,0-1.47,2.29-2.86,3.08,0,0-4.82,3.39-5.53,3.73,0,0-2.71,2.44-3.01,3.23l-.04,10.12s-1.47,1.47-1.84,2.07c0,0-1.21,.37-2.03,.37,0,0-.45,.19-.68,1.13,0,0-.94,1.32-1.47,1.84,0,0-1.95,2.11-.68,3.08,0,0,1.54,1.05,1.88,1.09,0,0,1.24,.64,.75,1.65l-1.24,2.82s-.41,1.46-.3,1.73c0,0,.15,1.43,.34,2.18,0,0,.19,1.77-.26,2.37,0,0,0,2.82,.98,3.5,0,0,.83,.79,3.05,1.16,0,0,1.69,.45,1.69,1.24,0,0,.6,1.24,2.48,2.03,0,0,1.92,.83,2.37,1.73,0,0,.68,2.4,2.45,3.27,0,0,2.18,.83,2.59,1.05,0,0,1.28,.79,1.21,1.43,0,0,1.24,1.05,1.28,1.43,0,0,1.24,2.41-.15,3.16,0,0-.26,.15,.07,.68,0,0,1.13,1.47,1.13,1.77,0,0,.19,.49-.57,.34l-63.5,.04-.07-31.94s-2.03-1.35-2.93-3.01c0,0-1.66-1.88-.79-2.67,0,0,3.84-2.07,4.18-2.71,0,0,.38-2.26-.15-4.51,0,0-.57-1.92-.26-3.5,0,0-.72-4.18-1.24-4.82,0,0-1.32-2.67-.64-4.1,0,0,.64-2.33-.22-4.81,0,0-.04-1.54,.19-2.14,0,0,.71-4.14,.34-5.3,0,0-2-5.12-2.52-9.56l-.15-.34-.04-6.4s.45-4.03,0-5.19c0,0-1.5-2.11-.72-3.2Z"/>
  <g>
    <path class="cls-1" d="M157.99,42.81c-.36,2.13,.25,4.89,.93,2.81-.15-1.12-.21-.9-.6-1.69-.34-.67,.67-1.18,1.01-.51,.47,.94,.54,.96,.73,2.3-1.01,3.07-3.32,.11-2.79-3.04,.08-.48,.8-.36,.72,.12Z"/>
    <path class="cls-1" d="M185.74,22.97c.04-1.07-.18-.48,0-1.59,1.2-2.4,4.29-2.01,4.67,.24,.03,.18-.23,.22-.26,.05-.29-1.75-2.66-1.89-3.58-.03-.16,1.04-.24,.33-.27,1.34-.01,.36-.54,.34-.53-.01Z"/>
    <path class="cls-1" d="M190.52,21.53c2.72,1.36,4.88,1.8,7.53,2.86,2.26,1.11,2.94,3.24,1.22,4.96-1.48,1.24-2.69,2.22-4.4,3.27-1.19,.88-3.07,1.39-4.56,1.93-.16,.06-.26-.19-.09-.25,1.44-.52,3.08-1.47,4.22-2.32,1.68-1.02,2.93-1.91,4.38-3.12,1.27-1.27,.5-2.74-1.18-3.56-2.67-1.07-4.64-1.89-7.37-3.26-.34-.17-.08-.68,.25-.5Z"/>
    <path class="cls-1" d="M184.74,24.42l.3,1.04c.05,.19-.56-.32-.36-.32,.76,0,.94-.01,1.43,.04,1.03-.3,2.18-.88,2.68,.13,2.67,5.37-.26,8.33-4.33,10.76-.73,.37-1.41,.46-2.11,.86-.15,.09-.28-.14-.13-.23,.71-.4,1.15-.9,1.88-1.27,3.85-2.29,6.97-4.92,4.45-10-.43-.87-1.47,.4-2.37,.65-.52-.06-.79-.21-1.5-.21-.23,0-.37-.09-.36-.32l.03-1.08c0-.27,.32-.31,.4-.05Z"/>
    <path class="cls-1" d="M188.21,35.6c2.32-.91,4.22-3.34,5.69-5.3,.1-.13,.03,.62-.04,.47-1.2-2.43-1.92-5.31-3.31-7.44-.11-.17,.14-.33,.25-.17,1.4,2.14,2.67,4.77,3.87,7.2,.07,.15,.05,.34-.04,.47-1.53,2.03-3.88,4.13-6.29,5.07-.21,.08-.33-.23-.12-.31Z"/>
    <path class="cls-1" d="M192.07,24.83c1.19,.59,2.88,.62,3.61,1.61,.19,.26,.16,.47-.11,.65-.51,.33-.81,.64-1.17,1.12-.4,.53-1.2-.07-.8-.6,.44-.58,.87-.88,1.48-1.28,.27-.18,.08,.9-.11,.65-.66-.88-1.97-1.31-3.04-1.85-.2-.1-.05-.4,.15-.3Z"/>
    <path class="cls-1" d="M180.52,37.83c-.52,.61-.93,.94-1.32,1.65-1.73,2.96,3.36,5.7,4.08,7.49,0,2.22,1.11,2.73,1.47,4.52,.34,1.79-.86,3.05-.35,4.57,.05,.17-.2,.25-.25,.08-.49-1.48-.02-2.72-.35-4.47-.37-1.87-1.45-2.22-1.45-4.53-.75-1.87-5.44-4.85-3.64-7.95,.41-.75,1.06-.89,1.61-1.54,.12-.14,.32,.04,.2,.17Z"/>
    <path class="cls-1" d="M191.3,35.94c1.11,1.61,2.07,2.89,2.74,4.94,.39,1.24,.67,2.9,1.25,3.98,.53,.96,1.78,1.8,1.88,3.29l-.15,1.11c-.05,.36-.82-.61-.47-.58,3.02,.26,1.94,2.71-.03,4.06-1.71,.84-3.35,1.03-5.16,1.76-.17,.07-.27-.18-.1-.25,1.79-.73,3-1.66,4.69-2.49,1.05-.72,2.11-1.92,.51-2.06-.35-.03-.51-.23-.47-.58l.12-1.02c-.09-1.31-1.12-2-1.58-2.84-.61-1.13-.47-2.98-.87-4.28-.66-2.01-1.49-3.33-2.58-4.91-.1-.14,.12-.3,.22-.15Z"/>
    <path class="cls-1" d="M190.74,88.59c-.85,.46-1.77,1.2-2.43,1.69-.18,.13-.12-.61,.04-.45,2,1.99,3.7,.81,5.54-.55,.66-.49,1.39,.5,.73,.99-2.22,1.64-4.29,2.38-6.7-.02-.16-.16-.15-.32,.03-.45,.68-.51,1.76-1.04,2.63-1.51,.2-.11,.35,.19,.16,.3Z"/>
    <path class="cls-1" d="M191.43,77.13c0,2.78,.08,5.78-.81,7.57-.33,.65-1.31,.16-.98-.49,.84-1.68,1.05-4.46,1.05-7.08,0-.49,.74-.49,.74,0Z"/>
    <path class="cls-1" d="M185.68,34.73c-.33-.29-.6-.43-.92-.7-.28-.35-.39-.82-.27-1.3,.14-.2,.49-.47,.59-.57,.64-.64-.35-1.47-.66-1.94-.57-.49-.81-.99-1.33-1.42-1.15-.7-1.32-1.81-2.64-2.28-.38-.06-.67-.03-1.05-.03-1.11,.22-2.17,.6-2.58,1.37-.37,.72-.08,2.48,.05,3.29,.12,.88,.7,2.41,1.43,2.93,.34,.43,.88,.68,1.33,.91,.75,.34,.94,1.02,1.36,1.63,.08,.12,.14,.34,.09,.48l-.16,.45c-.25,.69-1.13,.5-1.08-.23l.03-.48c0-.11,.16,.56,.1,.48-.32-.46-.2-1.17-.77-1.43-.61-.3-1.27-.43-1.73-.94-.89-.71-1.41-2.54-1.56-3.66-.14-.92-.05-2.89,.38-3.7,.46-.89,1.8-1.17,3.08-1.42,.41,0,.74,.04,1.15,.1,1.33,.47,1.65,1.48,2.82,2.18,.53,.43,.86,.95,1.46,1.44,.33,.54,1.23,1.69,.47,2.45-.1,.1-.4,.3-.53,.49-.06,.33,.31,.45,.52,.69,.33,.26,.47,.47,.81,.77,.28,.25-.1,.67-.38,.42Z"/>
    <path class="cls-1" d="M183.54,58.71c-.23,4.24,1.67,7.05,3.15,9.78,.04,.08,.05,.25,.02,.34-.33,.85-.46,1.49-.18,2.52,.63,2.37-.82,3.73-2,5.79-.44,.85-.82,1.36-1.29,2.02-.3,.87-.67,1.75-1.02,2.37-.8,.46-1.94,1.29-1.42,2.92,.42,.83,.55,1.41,.76,2.39,.17,1.17,.34,1.92,.44,3.1,.03,.28-.72-.41-.45-.41,.93,0,1.66,.22,2.45,.15,.18-.01,.2,.25,.02,.27-.82,.07-1.52,.48-2.47,.48-.28,0-.42-.13-.45-.41-.1-1.16-.26-1.87-.43-3.02-.19-.88-.32-1.45-.7-2.21-.68-2.15,.7-3.14,1.75-3.75,.29-.59,.45-1.43,.74-2.27,.46-.65,.88-1.23,1.3-2.04,1.08-1.87,2.62-3.04,2.05-5.19-.32-1.23-.25-1.99,.15-3,.03-.09,.06,.42,.02,.33-1.52-2.8-2.95-5.83-2.71-10.18,.01-.18,.28-.16,.27,.01Z"/>
    <path class="cls-1" d="M191.99,60.37c.48,3.82,1.88,10.91,.17,14.35-.48,.85-1.32,1.92-1.84,2.57-.98,.99-1.49,1.79-2.08,2.99-.18,1.08-.6,1.91-.84,2.83-1.15,1.14-2.73,1.5-4.48,1.11-.26-.06-.17-.45,.09-.39,1.51,.34,2.64-.24,3.61-1.17,.22-.84,.5-1.6,.66-2.67,.66-1.36,1.17-2.33,2.24-3.4,.49-.62,1.24-1.55,1.69-2.36,1.63-3.28,.96-10.19,.51-13.82-.02-.17,.24-.21,.26-.03Z"/>
    <path class="cls-1" d="M184.7,85.42c.16,.94,.23,.97,.55,1.72,.28,.68-.73,1.1-1.01,.42-.35-.85-.14-.95-.32-2.01-.09-.52,.7-.66,.79-.13Z"/>
    <path class="cls-1" d="M198.01,52.1c.26,2.79,.67,5.65,1.32,7.59,.34,1,.14,1.34-.27,1.92-.57,2.51,.15,7.79-.92,10.5-.51,1.32-.88,3.59-.75,5.52,.17,2.45,1.25,5.37,.25,7.4-.32,1.03-.01,.2-.43,1.02-.23,1.3-.15,.87-1.45,1.68-.61,.1-1.12,.17-1.73,.24-.62,.07-.72-.86-.1-.93,.59-.06,.93-.21,1.46-.31,.75-.44,.81-.07,.97-.96,.4-.81,.08-.21,.36-1.11,.93-1.89-.12-4.69-.29-6.97-.13-2.07,.29-4.51,.85-5.93,1.06-2.67,.39-8.05,.95-10.53,.25-.35,.45-.67,.25-1.27-.67-1.99-.53-4.98-.8-7.84-.02-.22,.31-.25,.33-.03Z"/>
    <path class="cls-1" d="M186.92,22.06c.38-.18,.71-.35,1.13-.42,.61,0,1.45,.22,1.82,.29,.34,.34,.72,.55,1.03,.92,.13,.31-.09,.47,.09,.66,.13,.12-.06,.31-.19,.19-.25-.25-.48-.06-.65-.4-.26-.36-.15-.73-.44-1.07-.37-.06-1.04-.12-1.63-.12-.37,.06-.65,.16-1,.31-.24,.11-.41-.25-.17-.36Z"/>
    <path class="cls-1" d="M179.69,26.26c.84-.6,1.61-1.15,2.63-1.66,1.21-.91,2.26-.96,3.47-1.87,.14-.11,.3,.11,.16,.21-1.19,.89-1.99,1.49-3.18,2.39-.73,.36-1.33,.74-1.92,1.16l-1.16-.23Z"/>
    <path class="cls-1" d="M176.19,29.93c-5.34,4.12-12.77,9.75-17.69,12.68-.17,.1-.33-.15-.16-.25,5.12-3.06,12.72-9.43,18.03-13.64l-.19,1.22Z"/>
    <path class="cls-1" d="M187.88,36.2c1.14-.53,2.32-2.02,3.21-.96,.56,.66-.43,1.5-.99,.84-.57-.68-1.38,.03-2.11,.37-.16,.07-.27-.17-.11-.24Z"/>
    <path class="cls-1" d="M194.5,28.19c.13,.4,.34,.59,.47,.96,.17,.33,.3,.53,.44,.88,.02,.05,.05,.27,.04,.32-.05,.32-.4,.53-.54,.76-.35,.28-.56,.71-.85,1.06-.53,.43-1.16,.45-1.56,.97-.11,.14-.32-.02-.21-.16,.41-.55,.63-.99,1.16-1.42,.3-.37,.5-.62,.89-.94,.08-.13-.17-.26-.14-.44,0-.06,.06,.37,.04,.32-.12-.31-.27-.54-.43-.86-.14-.4-.06-.75-.19-1.16-.2-.59,.69-.88,.88-.29Z"/>
    <path class="cls-1" d="M184.91,33.58c-.31,.69-1.16,.78-1.73,1.12-.15,.09-.29-.14-.14-.23,.45-.27,.63-.81,.87-1.34,.3-.67,1.3-.22,1,.45Z"/>
    <path class="cls-1" d="M192.67,63.26c.2,.8,.42,1.35,.62,2.15-.1,1.23-.2,2-.3,3.23-.02,.26-.42,.23-.4-.03,.1-1.23,.13-1.95,.23-3.16-.19-.78-.25-1.31-.44-2.11-.05-.2,.24-.27,.29-.07Z"/>
  </g>
  <g>
    <path class="cls-3" d="M37.52,43.72c.24,4.11,3.87,2.3,3.87,4.02,0,.49-.64,.49-1.18,.49-.93,0-2.65-.2-4.6-.2-1.52,0-3.09,.2-4.31,.2-.44,0-.54-.24-.54-.44,0-1.47,3.09-.39,3.04-4.02l-.49-19c0-1.22-.24-1.91-.54-1.91-.34,0-.78,.44-1.27,1.47l-10.14,20.67c-.25,.44-1.03,2.45-1.52,2.45s-.83-1.08-.98-1.42L8.42,24.18c-.15-.39-.39-.54-.59-.54-.15,0-.29,.25-.34,.73l-.59,17.19c-.24,6.51,4.41,4.36,4.41,6.12,0,.49-.54,.54-1.22,.54-.64,0-2.84-.2-4.31-.2-2.55,0-3.38,.2-4.26,.2-.34,0-.49-.24-.49-.59,0-1.66,3.14,.34,3.48-4.75,.59-7.98,1.18-13.17,1.18-18.37C5.68,13.01,1.03,15.75,1.03,14.09c0-.44,.39-.54,.83-.54,.88,0,1.76,.2,2.69,.2s1.76-.2,2.65-.2c.69,0,.78,.83,1.03,1.37l11.66,24.88c.54,1.03,.74,1.47,1.08,1.47,.25,0,.73-1.03,1.52-2.65l11.66-23.41c.29-.54,.69-1.71,1.27-1.67,.49,0,2.06,.2,2.3,.2,1.13,0,1.57-.2,2.35-.2,.29,0,.49,.29,.49,.59,0,1.57-3.92-.54-3.72,5.29l.69,24.29Z"/>
    <path class="cls-3" d="M52.9,41.47c0,7.05,5.14,4.51,5.14,6.17,0,.34-.2,.59-1.42,.59-1.67,0-2.4-.2-5.29-.2-2.3,0-3.92,.2-5.34,.2-.29,0-.78-.14-.78-.59,0-1.32,3.82,.2,3.82-5.24V18.94c0-5.88-4.02-2.89-4.02-4.65,0-.39,.25-.73,.64-.73,.44,0,2.15,.2,5,.2,2.45,0,3.23-.2,5.58-.2,6.22,0,13.13,2.15,13.13,9.45,0,1.96-1.47,9.4-11.9,9.4-.49,0-3.33-.25-3.33-1.13,0-.34,.24-.44,.49-.44,.39,0,1.42,.29,3.18,.29,5,0,7.93-2.4,7.93-6.81,0-5.93-4.56-9.06-10.19-9.06-1.57,0-2.64,0-2.64,1.47v24.73Z"/>
    <path class="cls-3" d="M105.41,30.01c.39,0,1.32-.2,1.32,.44,0,1.03-2.5-.1-2.5,3.19v9.99c-5.05,1.62-6.37,4.95-15.09,4.95-10.83,0-17.54-6.71-17.54-17.58s7.94-17.88,18.32-17.88c8.47,0,10.92,3.33,12.29,3.33,.54,0,.73-.88,1.27-.88,.69,0,.49,.73,.54,1.13l.49,6.42c0,.39-.05,.88-.54,.88-1.27,0-3.48-9.46-15.04-9.46-8.82,0-13.23,7.45-13.23,15.53,0,8.67,5,16.95,14.45,16.95,4.46,0,10.19-2.2,10.19-6.37v-7.59c0-2.3-4.26-1.27-4.26-2.5,0-.64,.69-.54,1.13-.54h8.18Z"/>
    <path class="cls-3" d="M134.02,36.52c-.49-1.13-.78-1.86-2.16-1.86h-10.78c-.93,0-1.81,0-2.3,1.03l-3.14,6.86c-.15,.34-.34,1.08-.34,1.71,0,3.43,3.48,1.96,3.48,3.23,0,.88-.69,.73-1.32,.73-1.37,0-2.74-.2-4.11-.2s-2.65,.2-3.92,.2c-.29,0-.44-.24-.44-.54,0-1.03,2.3-.2,3.58-2.99l11.71-24.98c2.89-6.17,3.04-6.95,3.67-6.95,.54,0,.88,1.42,1.03,1.81l10.19,25.23c.73,1.81,1.32,3.87,2.45,5.58,1.47,2.25,4.31,1.18,4.31,2.4,0,.44-.34,.44-.68,.44-2.01,0-4.02-.2-6.02-.2-1.32,0-2.64,.2-3.97,.2-.29,0-1.08,0-1.08-.49,0-1.17,2.94-.68,2.94-2.55,0-1.08-1.03-3.33-1.52-4.65l-1.57-4.02Zm-13.23-4.9c-.34,.69,0,.88,.64,.88h9.7c1.08,0,1.03-.34,.79-.98l-4.8-11.8c-.25-.59-.49-.59-.78,0l-5.54,11.9Z"/>
    <path class="cls-3" d="M11.62,65.62c.08,1.34,1.23,.75,1.23,1.31,0,.16-.2,.16-.37,.16-.3,0-.84-.06-1.46-.06-.48,0-.98,.06-1.37,.06-.14,0-.17-.08-.17-.15,0-.48,.98-.13,.96-1.31l-.15-6.21c0-.4-.08-.62-.17-.62-.11,0-.25,.14-.4,.48l-3.21,6.75c-.08,.14-.33,.8-.48,.8s-.26-.35-.31-.47l-3.3-7.13c-.05-.13-.12-.18-.19-.18-.05,0-.09,.08-.11,.24l-.19,5.62c-.08,2.13,1.4,1.42,1.4,2,0,.16-.17,.17-.39,.17-.2,0-.9-.06-1.37-.06-.81,0-1.07,.06-1.35,.06-.11,0-.16-.08-.16-.19,0-.54,.99,.11,1.1-1.55,.19-2.61,.37-4.31,.37-6,0-3.76-1.48-2.86-1.48-3.41,0-.14,.12-.18,.26-.18,.28,0,.56,.07,.85,.07,.28,0,.56-.07,.84-.07,.22,0,.25,.27,.33,.45l3.69,8.13c.17,.33,.23,.48,.34,.48,.08,0,.23-.34,.48-.86l3.69-7.65c.09-.18,.22-.56,.4-.55,.16,0,.65,.07,.73,.07,.36,0,.5-.07,.74-.07,.09,0,.15,.1,.15,.19,0,.51-1.24-.18-1.18,1.73l.22,7.94Z"/>
    <path class="cls-3" d="M15.31,57.14c-.02-1.17-1.26-.85-1.26-1.2,0-.14,.03-.18,.16-.18,.57,0,1.13,.07,1.71,.07,.48,0,.96-.07,1.44-.07,.25,0,.29,.03,.29,.16,0,.38-1.12,.02-1.12,1.22v8.59c0,1.09,1.38,.72,1.38,1.2,0,.11-.05,.16-.31,.16-.36,0-1.02-.06-1.69-.06-.95,0-1.27,.06-1.49,.06-.28,0-.33-.08-.33-.24,0-.47,1.21,.06,1.21-1.52v-8.19Z"/>
    <path class="cls-3" d="M20.35,58.91c0-3.33-1.88-2.4-1.88-2.99,0-.1,.16-.16,.23-.16,.25,0,.48,.07,.73,.07,.23,0,.48-.07,.71-.07,.17,0,.31,.26,.4,.37l7.4,8.5c.09,.11,.16,.18,.19,.18s.05-.05,.05-.18v-6.69c0-2.1-1.72-1.49-1.72-2.01,0-.11,.08-.16,.17-.16,.47,0,.92,.07,1.41,.07,.53,0,1.2-.07,1.57-.07,.09,0,.16,.05,.16,.14,0,.42-.91,.13-.91,1.3v9.26c0,.46-.02,.69-.14,.69-.11,0-.26-.08-.59-.45l-6.67-7.75s-.22-.3-.33-.3c-.06,0-.11,.05-.11,.37v6.54c0,1.44,1.37,.88,1.37,1.31,0,.08-.02,.21-.17,.21-.37,0-.81-.06-1.57-.06-.54,0-1.35,.06-1.46,.06-.19,0-.2-.1-.2-.17,0-.56,1.36,.14,1.36-2.1v-5.91Z"/>
    <path class="cls-3" d="M32.42,58.91c0-3.33-1.88-2.4-1.88-2.99,0-.1,.15-.16,.23-.16,.25,0,.48,.07,.73,.07,.23,0,.48-.07,.71-.07,.17,0,.31,.26,.4,.37l7.4,8.5c.09,.11,.15,.18,.19,.18s.05-.05,.05-.18v-6.69c0-2.1-1.72-1.49-1.72-2.01,0-.11,.08-.16,.17-.16,.47,0,.92,.07,1.41,.07,.53,0,1.19-.07,1.57-.07,.09,0,.15,.05,.15,.14,0,.42-.91,.13-.91,1.3v9.26c0,.46-.02,.69-.14,.69-.11,0-.26-.08-.59-.45l-6.67-7.75s-.22-.3-.33-.3c-.06,0-.11,.05-.11,.37v6.54c0,1.44,1.37,.88,1.37,1.31,0,.08-.02,.21-.17,.21-.37,0-.81-.06-1.57-.06-.54,0-1.35,.06-1.46,.06-.19,0-.2-.1-.2-.17,0-.56,1.37,.14,1.37-2.1v-5.91Z"/>
    <path class="cls-3" d="M45.55,60.42c0,.54-.03,.54,.59,.54h1.68c1.61,0,1.19-1.28,1.57-1.28,.12,0,.17,.18,.17,.31,0,.56-.03,1.11-.03,1.62,0,.42,.03,.83,.03,1.26,0,.15-.06,.21-.17,.21-.48,0,.05-1.41-1.26-1.41h-2.3c-.33,0-.28,.27-.28,.51v2.94c0,.95-.12,1.33,1.18,1.33,3.58,0,4.11-1.65,4.31-1.65,.11,0,.12,.16,.12,.19,0,.58-.4,1.14-.78,1.55-.5,.58-.84,.54-1.52,.54-1.18,0-2.36-.1-3.54-.06-.62,.02-1.27,.06-1.89,.06-.14,0-.23-.03-.23-.16,.03-.19,.19-.16,.68-.42,.4-.19,.43-.64,.43-1.39v-7.29c0-.72,0-1.49-.84-1.62-.12-.03-.47-.06-.47-.25,0-.13,.09-.19,.54-.19,2.93,0,3.74,.07,4.39,.07,.31,0,1.74-.07,2.22-.07,.12,0,.15,.16,.15,.35,0,1.78-.22,1.9-.31,1.9-.37,0-.12-.77-.37-1.14-.4-.54-2.02-.45-2.64-.45-1.49,0-1.46-.06-1.46,1.01v2.98Z"/>
    <path class="cls-3" d="M51.88,64.26c-.06-.32,.02-.5,.17-.5,.22,0,.22,.19,.29,.53,.19,.73,1.12,2.4,3.26,2.4,1.47,0,2.92-.85,2.92-2.53,0-3.09-6.3-1.36-6.3-5.54,0-2.03,1.66-3.01,3.44-3.01,1.88,0,2.39,.57,2.61,.57,.14,0,.17-.18,.33-.18,.09,0,.17,.05,.19,.22l.23,2.18c.02,.13-.02,.24-.17,.24-.17,0-.28-.34-.33-.48-.47-1.38-1.6-2.08-2.96-2.08-1.23,0-2.53,.61-2.53,2.08,0,3.01,6.3,1.25,6.3,5.67,0,1.34-.92,3.36-4.44,3.36-1.15,0-2.56-.59-2.62-.88l-.39-2.07Z"/>
    <path class="cls-3" d="M60.35,61.36c0-3.33,2.51-5.74,5.69-5.74s5.6,2.35,5.6,5.66c0,3.6-2.4,5.92-5.86,5.92s-5.43-2.47-5.43-5.84Zm1.13-.46c0,2.96,1.88,5.82,4.95,5.82,2.27,0,4.08-1.87,4.08-4.83s-1.91-5.75-4.93-5.75c-2.61,0-4.1,2.22-4.1,4.75Z"/>
    <path class="cls-3" d="M76.56,57.38c0-.11,.06-.72-.16-.73h-2.53c-.96,0-.99,.24-1.27,1.12-.05,.16-.06,.37-.26,.37-.09,0-.16-.11-.16-.19l.17-1.55c.02-.19,0-.62,.28-.62,1.21,0,2.4,.07,4.41,.07,2.81,0,4.24-.07,4.55-.07,.36,0,.43,.1,.45,.46l.08,1.28c.01,.16,.03,.35-.17,.35-.57,0,.26-1.21-1.32-1.21h-2.22c-.7,0-.62-.07-.62,.79v8.16c0,1.34,1.26,.82,1.26,1.31,0,.05,.02,.19-.14,.19-.37,0-.81-.06-1.26-.06-1.74,0-2.03,.06-2.13,.06-.14,0-.19-.05-.19-.21,0-.38,1.23-.22,1.23-1.18v-8.32Z"/>
    <path class="cls-3" d="M89.04,63.26c-.16-.37-.25-.61-.68-.61h-3.41c-.29,0-.57,0-.73,.33l-.99,2.24c-.05,.11-.11,.35-.11,.56,0,1.12,1.1,.64,1.1,1.06,0,.29-.22,.24-.42,.24-.43,0-.87-.06-1.3-.06s-.84,.06-1.24,.06c-.09,0-.14-.08-.14-.17,0-.34,.73-.06,1.13-.98l3.71-8.16c.91-2.02,.96-2.27,1.16-2.27,.17,0,.28,.46,.33,.59l3.23,8.24c.23,.59,.42,1.26,.78,1.82,.47,.74,1.36,.38,1.36,.78,0,.15-.11,.15-.22,.15-.64,0-1.27-.06-1.91-.06-.42,0-.84,.06-1.26,.06-.09,0-.34,0-.34-.16,0-.38,.93-.22,.93-.83,0-.35-.33-1.09-.48-1.52l-.5-1.31Zm-4.19-1.6c-.11,.22,0,.29,.2,.29h3.07c.34,0,.33-.11,.25-.32l-1.52-3.85c-.08-.19-.16-.19-.25,0l-1.75,3.89Z"/>
    <path class="cls-3" d="M100,64.88c0,2.3,1.63,1.47,1.63,2.01,0,.11-.06,.19-.45,.19-.53,0-.76-.06-1.68-.06-.73,0-1.24,.06-1.69,.06-.09,0-.25-.05-.25-.19,0-.43,1.21,.06,1.21-1.71v-7.66c0-1.92-1.27-.95-1.27-1.52,0-.13,.08-.24,.2-.24,.14,0,.68,.07,1.58,.07,.78,0,1.02-.07,1.77-.07,1.97,0,4.16,.7,4.16,3.09,0,.64-.46,3.07-3.77,3.07-.16,0-1.05-.08-1.05-.37,0-.11,.08-.15,.16-.15,.12,0,.45,.1,1.01,.1,1.58,0,2.51-.79,2.51-2.22,0-1.94-1.44-2.96-3.23-2.96-.5,0-.84,0-.84,.48v8.08Z"/>
    <path class="cls-3" d="M108.16,62.82c0,2.56,1.61,3.73,3.71,3.73,2.92,0,3.58-1.98,3.58-3.87v-5.18c0-1.63-1.44-.96-1.44-1.57,0-.08,.11-.16,.15-.16,.6,0,1.21,.07,1.81,.07,.3,0,.57-.07,.85-.07,.08,0,.2,.08,.2,.18,0,.45-.92,.1-.92,1.57v4.96c0,.78,.19,4.74-4.33,4.74-4.08,0-4.86-2.35-4.86-4.82v-5.39c0-.94-1.26-.56-1.26-1.07,0-.11,.26-.16,.34-.16,.4,0,.79,.07,1.21,.07,.5,0,.99-.07,1.47-.07,.08,0,.5-.03,.5,.16,0,.45-1.04,0-1.04,1.15v5.75Z"/>
    <path class="cls-3" d="M119.58,57.36c0-1.22-1.38-1.06-1.38-1.38,0-.24,.23-.22,.42-.22,.31,0,.62,.07,1.24,.07s1.24-.07,2.48-.07c2.73,0,3.41,1.54,3.41,2.72,0,1.63-1.46,2.16-1.46,2.27,0,.24,2.44,.29,2.44,2.94,0,1.06-.75,3.39-3.77,3.39-.56,0-1.49-.06-2.02-.06-.71,0-1.44,.06-2.16,.06-.08,0-.39-.03-.39-.17,0-.16,.19-.21,.47-.3,.17-.05,.71-.13,.71-1.38v-7.87Zm1.23,2.77c0,.51-.19,.59,1.21,.59,2.54,0,2.67-.98,2.67-1.73,0-1.73-1.41-2.7-2.98-2.7-.98,0-.9,.27-.9,1.2v2.64Zm0,5.04c0,1.15-.08,1.49,2.12,1.49,2.06,0,2.62-1.41,2.62-2.37,0-1.03-.06-3.08-3.63-3.08-1.19,0-1.12,.23-1.12,.37v3.58Z"/>
    <path class="cls-3" d="M129.89,65.12c0,.95-.12,1.33,1.18,1.33,3.58,0,4.11-1.65,4.31-1.65,.11,0,.13,.16,.13,.19,0,.58-.4,1.14-.78,1.55-.5,.58-.84,.54-1.52,.54-1.18,0-2.36-.1-3.54-.06-.62,.02-1.27,.06-1.89,.06-.14,0-.23-.03-.23-.16,.03-.19,.19-.16,.68-.42,.4-.19,.43-.64,.43-1.39v-8.11c0-.83-1.3-.72-1.3-1.04,0-.18,.11-.21,.31-.21,.33,0,.8,.07,1.57,.07,.88,0,1.26-.07,1.49-.07,.2,0,.29,.03,.29,.22,0,.37-1.13-.03-1.13,1.36v7.78Z"/>
    <path class="cls-3" d="M137.62,57.14c-.01-1.17-1.26-.85-1.26-1.2,0-.14,.03-.18,.16-.18,.57,0,1.13,.07,1.71,.07,.48,0,.96-.07,1.44-.07,.25,0,.29,.03,.29,.16,0,.38-1.12,.02-1.12,1.22v8.59c0,1.09,1.38,.72,1.38,1.2,0,.11-.05,.16-.31,.16-.36,0-1.02-.06-1.69-.06-.95,0-1.27,.06-1.49,.06-.28,0-.33-.08-.33-.24,0-.47,1.21,.06,1.21-1.52v-8.19Z"/>
    <path class="cls-3" d="M146.85,55.62c2.92,0,3.72,1.23,4.17,1.23,.13,0,.22-.16,.37-.16,.17,0,.17,.26,.22,1.3,.03,.84,.17,1.37-.09,1.37-.19,0-.3-.42-.36-.53-.96-1.71-2.06-2.75-4.06-2.75-3.03,0-4.48,2.08-4.48,5.05,0,2.79,1.55,5.57,4.53,5.57,2.44,0,3.96-1.6,4.19-2.34,.03-.11,.12-.21,.22-.21,.08,0,.16,.1,.14,.18l-.36,1.6c-.01,.06-1.12,1.26-4.61,1.26-3.18,0-5.46-2.26-5.46-5.57s2.31-6.01,5.58-6.01Z"/>
    <path class="cls-3" d="M10.82,79.13c.13,0,.42-.06,.42,.14,0,.34-.8-.03-.8,1.04v3.26c-1.61,.53-2.04,1.62-4.83,1.62-3.47,0-5.61-2.19-5.61-5.74s2.54-5.84,5.87-5.84c2.71,0,3.5,1.09,3.94,1.09,.17,0,.23-.29,.41-.29,.22,0,.16,.24,.17,.37l.16,2.1c0,.13-.01,.29-.17,.29-.41,0-1.11-3.09-4.81-3.09-2.82,0-4.23,2.43-4.23,5.07,0,2.83,1.6,5.54,4.63,5.54,1.43,0,3.26-.72,3.26-2.08v-2.48c0-.75-1.36-.42-1.36-.82,0-.21,.22-.17,.36-.17h2.62Z"/>
    <path class="cls-3" d="M12.2,79.36c0-3.33,2.54-5.75,5.75-5.75s5.66,2.35,5.66,5.67c0,3.6-2.43,5.92-5.93,5.92s-5.49-2.46-5.49-5.84Zm1.15-.46c0,2.96,1.9,5.83,5,5.83,2.29,0,4.12-1.87,4.12-4.83s-1.93-5.74-4.99-5.74c-2.64,0-4.14,2.22-4.14,4.75Z"/>
    <path class="cls-3" d="M26.84,83.12c0,.94-.13,1.33,1.19,1.33,3.62,0,4.16-1.65,4.36-1.65,.11,0,.13,.16,.13,.19,0,.58-.41,1.14-.78,1.55-.5,.58-.85,.54-1.54,.54-1.19,0-2.38-.1-3.58-.06-.63,.01-1.29,.06-1.91,.06-.14,0-.24-.03-.24-.16,.03-.19,.19-.16,.69-.42,.41-.19,.44-.64,.44-1.39v-8.11c0-.83-1.32-.72-1.32-1.04,0-.17,.11-.21,.31-.21,.33,0,.82,.06,1.58,.06,.89,0,1.27-.06,1.5-.06,.2,0,.3,.03,.3,.22,0,.37-1.15-.03-1.15,1.36v7.78Z"/>
    <path class="cls-3" d="M35.58,78.41c0,.55-.03,.55,.6,.55h1.69c1.63,0,1.21-1.28,1.58-1.28,.13,0,.17,.18,.17,.31,0,.56-.03,1.11-.03,1.62,0,.42,.03,.83,.03,1.26,0,.15-.06,.21-.17,.21-.49,0,.05-1.41-1.27-1.41h-2.32c-.36,0-.28,.27-.28,.51v3.23c0,1.52,1.47,1.11,1.47,1.47,0,.23-.23,.23-.35,.23s-.27-.08-1.72-.08c-.8,0-1.35,.08-1.63,.08-.13,0-.16-.11-.16-.15,0-.45,1.14,.02,1.14-1.76v-7.38c0-.72,0-1.49-.85-1.61-.12-.03-.47-.06-.47-.26,0-.13,.09-.19,.55-.19,2.96,0,3.78,.06,4.44,.06,.31,0,1.76-.06,2.24-.06,.13,0,.16,.16,.16,.35,0,1.78-.22,1.9-.31,1.9-.38,0-.13-.77-.38-1.14-.41-.55-2.04-.45-2.67-.45-1.5,0-1.47-.06-1.47,1.01v2.98Z"/>
    <path class="cls-3" d="M52.64,81.26c-.16-.37-.25-.61-.69-.61h-3.45c-.3,0-.58,0-.74,.34l-1,2.24c-.05,.11-.11,.35-.11,.56,0,1.12,1.11,.64,1.11,1.06,0,.29-.22,.24-.42,.24-.44,0-.88-.06-1.32-.06s-.85,.06-1.25,.06c-.09,0-.14-.08-.14-.18,0-.34,.74-.06,1.15-.98l3.75-8.16c.93-2.01,.97-2.27,1.18-2.27,.17,0,.28,.46,.33,.59l3.26,8.24c.24,.59,.42,1.26,.79,1.82,.47,.74,1.38,.38,1.38,.78,0,.15-.11,.15-.22,.15-.64,0-1.29-.06-1.93-.06-.42,0-.85,.06-1.27,.06-.09,0-.34,0-.34-.16,0-.39,.94-.22,.94-.83,0-.35-.33-1.09-.49-1.52l-.5-1.31Zm-4.23-1.6c-.11,.22,0,.29,.21,.29h3.1c.34,0,.33-.11,.25-.32l-1.54-3.86c-.08-.19-.16-.19-.25,0l-1.77,3.89Z"/>
    <path class="cls-3" d="M57.22,82.25c-.06-.32,.02-.5,.17-.5,.22,0,.22,.19,.3,.53,.19,.73,1.13,2.4,3.29,2.4,1.49,0,2.95-.85,2.95-2.53,0-3.09-6.37-1.36-6.37-5.54,0-2.03,1.68-3.01,3.48-3.01,1.9,0,2.41,.58,2.63,.58,.14,0,.17-.18,.33-.18,.09,0,.17,.05,.19,.22l.24,2.18c.02,.13-.02,.24-.17,.24-.17,0-.28-.34-.33-.48-.47-1.38-1.62-2.08-3-2.08-1.24,0-2.56,.61-2.56,2.08,0,3.01,6.37,1.25,6.37,5.67,0,1.34-.92,3.36-4.48,3.36-1.16,0-2.59-.59-2.65-.88l-.39-2.06Z"/>
    <path class="cls-3" d="M65.93,82.25c-.06-.32,.02-.5,.17-.5,.22,0,.22,.19,.3,.53,.19,.73,1.13,2.4,3.29,2.4,1.49,0,2.95-.85,2.95-2.53,0-3.09-6.37-1.36-6.37-5.54,0-2.03,1.68-3.01,3.48-3.01,1.9,0,2.41,.58,2.64,.58,.14,0,.17-.18,.33-.18,.09,0,.17,.05,.19,.22l.24,2.18c.02,.13-.02,.24-.17,.24-.17,0-.28-.34-.33-.48-.47-1.38-1.62-2.08-3-2.08-1.24,0-2.56,.61-2.56,2.08,0,3.01,6.37,1.25,6.37,5.67,0,1.34-.93,3.36-4.48,3.36-1.16,0-2.59-.59-2.65-.88l-.39-2.06Z"/>
    <path class="cls-3" d="M74.49,79.36c0-3.33,2.54-5.75,5.76-5.75s5.66,2.35,5.66,5.67c0,3.6-2.43,5.92-5.93,5.92s-5.49-2.46-5.49-5.84Zm1.14-.46c0,2.96,1.9,5.83,5,5.83,2.29,0,4.12-1.87,4.12-4.83s-1.93-5.74-4.99-5.74c-2.63,0-4.14,2.22-4.14,4.75Z"/>
    <path class="cls-3" d="M92.64,73.61c2.95,0,3.76,1.23,4.22,1.23,.12,0,.22-.16,.38-.16,.17,0,.17,.25,.22,1.3,.03,.85,.17,1.38-.09,1.38-.19,0-.3-.42-.36-.53-.97-1.71-2.09-2.75-4.11-2.75-3.06,0-4.53,2.08-4.53,5.06,0,2.78,1.57,5.57,4.58,5.57,2.46,0,4-1.6,4.23-2.34,.03-.11,.12-.21,.22-.21,.08,0,.16,.1,.14,.18l-.36,1.6c-.02,.06-1.13,1.26-4.66,1.26-3.21,0-5.52-2.26-5.52-5.57s2.34-6.02,5.65-6.02Z"/>
    <path class="cls-3" d="M99.85,75.13c-.02-1.17-1.27-.85-1.27-1.2,0-.14,.03-.18,.16-.18,.58,0,1.14,.06,1.72,.06,.49,0,.97-.06,1.46-.06,.25,0,.3,.03,.3,.16,0,.38-1.13,.02-1.13,1.21v8.6c0,1.09,1.4,.72,1.4,1.2,0,.11-.05,.16-.31,.16-.36,0-1.04-.06-1.71-.06-.96,0-1.29,.06-1.5,.06-.28,0-.33-.08-.33-.24,0-.47,1.22,.06,1.22-1.52v-8.2Z"/>
    <path class="cls-3" d="M111.31,81.26c-.16-.37-.25-.61-.69-.61h-3.45c-.3,0-.58,0-.74,.34l-1,2.24c-.05,.11-.11,.35-.11,.56,0,1.12,1.11,.64,1.11,1.06,0,.29-.22,.24-.42,.24-.44,0-.88-.06-1.32-.06s-.85,.06-1.25,.06c-.09,0-.14-.08-.14-.18,0-.34,.74-.06,1.14-.98l3.75-8.16c.93-2.01,.97-2.27,1.18-2.27,.17,0,.28,.46,.33,.59l3.26,8.24c.23,.59,.42,1.26,.78,1.82,.47,.74,1.38,.38,1.38,.78,0,.15-.11,.15-.22,.15-.64,0-1.29-.06-1.93-.06-.42,0-.85,.06-1.27,.06-.09,0-.34,0-.34-.16,0-.39,.94-.22,.94-.83,0-.35-.33-1.09-.49-1.52l-.5-1.31Zm-4.23-1.6c-.11,.22,0,.29,.2,.29h3.1c.34,0,.33-.11,.25-.32l-1.54-3.86c-.08-.19-.16-.19-.25,0l-1.77,3.89Z"/>
    <path class="cls-3" d="M118.18,75.37c0-.11,.06-.72-.16-.73h-2.56c-.97,0-1,.24-1.29,1.12-.05,.16-.06,.37-.27,.37-.09,0-.16-.11-.16-.19l.17-1.55c.02-.19,0-.62,.28-.62,1.22,0,2.43,.06,4.45,.06,2.84,0,4.28-.06,4.59-.06,.36,0,.44,.1,.46,.46l.08,1.28c.02,.16,.03,.35-.17,.35-.58,0,.27-1.21-1.33-1.21h-2.24c-.71,0-.63-.06-.63,.78v8.16c0,1.35,1.27,.82,1.27,1.31,0,.05,.02,.19-.14,.19-.37,0-.81-.06-1.27-.06-1.76,0-2.05,.06-2.15,.06-.14,0-.19-.05-.19-.21,0-.38,1.24-.22,1.24-1.18v-8.32Z"/>
    <path class="cls-3" d="M125.98,75.13c-.02-1.17-1.27-.85-1.27-1.2,0-.14,.03-.18,.16-.18,.58,0,1.14,.06,1.72,.06,.49,0,.97-.06,1.46-.06,.25,0,.3,.03,.3,.16,0,.38-1.13,.02-1.13,1.21v8.6c0,1.09,1.4,.72,1.4,1.2,0,.11-.05,.16-.31,.16-.36,0-1.03-.06-1.71-.06-.96,0-1.29,.06-1.51,.06-.28,0-.33-.08-.33-.24,0-.47,1.22,.06,1.22-1.52v-8.2Z"/>
    <path class="cls-3" d="M129.67,79.36c0-3.33,2.54-5.75,5.76-5.75s5.66,2.35,5.66,5.67c0,3.6-2.43,5.92-5.93,5.92s-5.49-2.46-5.49-5.84Zm1.14-.46c0,2.96,1.9,5.83,5,5.83,2.29,0,4.13-1.87,4.13-4.83s-1.93-5.74-4.99-5.74c-2.64,0-4.14,2.22-4.14,4.75Z"/>
    <path class="cls-3" d="M143.27,76.91c0-3.33-1.9-2.4-1.9-2.99,0-.1,.16-.16,.23-.16,.25,0,.49,.06,.74,.06,.23,0,.48-.06,.72-.06,.17,0,.31,.25,.41,.37l7.48,8.5c.09,.11,.16,.17,.19,.17,.03,0,.04-.05,.04-.17v-6.69c0-2.1-1.74-1.49-1.74-2.02,0-.11,.08-.16,.17-.16,.47,0,.92,.06,1.43,.06,.53,0,1.21-.06,1.58-.06,.09,0,.16,.05,.16,.14,0,.42-.93,.13-.93,1.29v9.27c0,.47-.01,.69-.14,.69-.11,0-.27-.08-.6-.45l-6.74-7.75s-.22-.3-.33-.3c-.06,0-.11,.05-.11,.37v6.55c0,1.44,1.38,.88,1.38,1.31,0,.08-.02,.21-.17,.21-.38,0-.82-.06-1.58-.06-.55,0-1.37,.06-1.47,.06-.19,0-.2-.1-.2-.18,0-.56,1.38,.14,1.38-2.1v-5.91Z"/>
  </g>
</svg>